<?xml version="1.0" encoding="UTF-8"?>
<svg version="1.1" xmlns="http://www.w3.org/2000/svg" width="2026" height="384">
<path d="M0 0 C1.46189507 -0.01511375 1.46189507 -0.01511375 2.95332336 -0.03053284 C6.17163599 -0.05900438 9.38947947 -0.06488899 12.60791016 -0.06811523 C14.84844149 -0.0777567 17.08897093 -0.0878492 19.32949829 -0.09837341 C24.02521137 -0.11633266 28.72075891 -0.12189462 33.41650391 -0.12011719 C39.42804745 -0.11981232 45.43852797 -0.16077302 51.44981956 -0.21243382 C56.07730975 -0.24582026 60.70454358 -0.25187406 65.33214188 -0.25028801 C67.54809866 -0.25382424 69.76406234 -0.26707222 71.97990036 -0.29028511 C75.08240575 -0.3197446 78.18261233 -0.31103345 81.28515625 -0.29296875 C82.19655869 -0.30982727 83.10796112 -0.32668579 84.04698181 -0.34405518 C89.66373188 -0.2611216 92.74214319 0.84766145 96.89650917 4.66063023 C99.84829202 8.4701746 100.52181071 12.08466236 100.52352905 16.81809998 C100.5289119 17.8848999 100.53429474 18.95169983 100.5398407 20.05082703 C100.53571671 21.21096817 100.53159271 22.37110931 100.52734375 23.56640625 C100.5309642 24.79620209 100.53458466 26.02599792 100.53831482 27.2930603 C100.54520653 29.96244066 100.54859958 32.63156854 100.54636765 35.30093193 C100.54352865 39.52467027 100.55790809 43.74824214 100.5753479 47.97193909 C100.62231966 59.98045361 100.6463155 71.98895625 100.65283203 83.99755859 C100.65658544 90.6342712 100.67463535 97.27079482 100.70792639 103.90742642 C100.72811422 108.10324825 100.73052409 112.29858183 100.71964622 116.49443233 C100.7164211 119.72162402 100.73914203 122.94865325 100.7578125 126.17578125 C100.74964005 127.33389816 100.74146759 128.49201508 100.73304749 129.68522644 C100.8154894 137.81776149 100.8154894 137.81776149 105.27197266 144.43579102 C111.41626756 148.26688836 117.67589958 147.85154395 124.74975586 147.8046875 C125.99292572 147.80845398 127.23609558 147.81222046 128.51693726 147.81610107 C131.21041655 147.82252591 133.90328803 147.82365889 136.59670448 147.81591606 C140.86373695 147.80427731 145.13050044 147.81654276 149.39750671 147.83253479 C159.99627071 147.86863722 170.5950277 147.87496421 181.19384766 147.87243652 C189.43283582 147.87072133 197.67160235 147.87796198 205.91052884 147.91241509 C210.14373744 147.92912281 214.37640351 147.92748954 218.60960925 147.91159236 C221.87512702 147.90438703 225.14052301 147.9230646 228.40600586 147.9375 C229.56530106 147.9277565 230.72459625 147.918013 231.91902161 147.90797424 C246.91093291 148.03981545 256.16926192 154.97577798 266.39648438 165.25512695 C275.47043935 174.66539159 278.3927307 184.25663875 278.39794922 197.28564453 C278.40075142 198.25295502 278.40075142 198.25295502 278.40361023 199.23980713 C278.40758403 200.62674629 278.40968626 202.01369187 278.41007233 203.40063667 C278.41441883 207.12533375 278.44550644 210.84986313 278.47119141 214.57446289 C278.50156823 219.29709193 278.52428608 224.0194514 278.52246094 228.7421875 C278.52167269 232.57609631 278.54507202 236.40920347 278.58434296 240.24290276 C278.5947759 241.69764537 278.59634688 243.15248079 278.58869171 244.60724068 C278.20235976 253.44994297 278.20235976 253.44994297 281.57788086 261.28344727 C284.55384806 263.68220805 284.55384806 263.68220805 288.04931641 264.86938477 C288.72534912 265.03978271 289.40138184 265.21018066 290.09790039 265.38574219 C290.79471924 265.5466333 291.49153809 265.70752441 292.20947266 265.87329102 C298.91630416 267.66858838 302.47346542 269.33515818 306.27197266 275.43579102 C308.25111305 279.39407181 307.93353443 284.26991361 306.65869141 288.44360352 C304.66768727 292.49577933 302.01731691 294.68344025 297.8979187 296.62628174 C292.16218899 298.39445455 286.09734948 297.9608875 280.15087891 297.89672852 C278.68171857 297.8943391 277.21255513 297.89343982 275.74339294 297.89395142 C272.6745165 297.89083606 269.60611139 297.87437194 266.53735352 297.84741211 C262.62604119 297.81346433 258.71524586 297.80578362 254.80380344 297.80730247 C251.77267119 297.80675556 248.74164937 297.79573668 245.71055412 297.78129959 C244.26942719 297.77498601 242.82828789 297.77100561 241.3871479 297.76951218 C224.47261268 297.73278722 214.08163465 294.55108123 201.95947266 282.62329102 C193.593574 274.15413707 188.02942434 265.74115817 188.01660156 253.45581055 C188.01117088 252.44964691 188.01117088 252.44964691 188.00563049 251.42315674 C187.99877269 249.97619098 187.99622423 248.52919955 187.99757767 247.08221817 C187.99854902 244.78582763 187.98552925 242.48989739 187.96859741 240.193573 C187.92251019 233.66806574 187.89773062 227.14260797 187.89111328 220.61694336 C187.8860791 216.61571908 187.86173621 212.61497836 187.82578659 208.6139183 C187.81603532 207.09662666 187.81363097 205.57926812 187.81895828 204.0619545 C188.14515413 193.54081703 188.14515413 193.54081703 184.68769836 183.85646057 C179.42006598 178.57043312 171.25703096 179.08143872 164.30955505 179.04460144 C162.44823692 179.05841606 162.44823692 179.05841606 160.54931641 179.07250977 C159.24926163 179.07201126 157.94920685 179.07151276 156.60975647 179.07099915 C153.87228607 179.07108831 151.13511358 179.08140356 148.39770508 179.09960938 C144.9089435 179.12231723 141.4206151 179.12283051 137.93179989 179.11609173 C134.57509038 179.11192619 131.2185111 179.12393758 127.86181641 179.13500977 C126.61891342 179.13409836 125.37601044 179.13318695 124.09544373 179.13224792 C113.29696631 178.97261168 113.29696631 178.97261168 103.83447266 183.43579102 C100.59152422 187.58676501 101.12007712 191.57289118 101.11425781 196.63964844 C101.10917709 197.59429993 101.10409637 198.54895142 101.09886169 199.53253174 C101.08814267 201.61090864 101.07952853 203.68929719 101.07274246 205.76769066 C101.060972 209.05891865 101.04152257 212.35001431 101.0196228 215.64118958 C100.95795374 225.00081975 100.90399983 234.36043778 100.87060547 243.72021484 C100.84964119 249.44143791 100.81431937 255.16242219 100.76984787 260.88350868 C100.75569714 263.06311542 100.74696753 265.24276442 100.74379349 267.42241478 C100.73887608 270.47685015 100.71569471 273.53065419 100.68847656 276.58496094 C100.69298576 277.93108208 100.69298576 277.93108208 100.69758606 279.30439758 C100.61980463 285.19241273 100.09939916 290.55259763 95.76184082 294.97570801 C88.88632496 298.41079781 81.6411817 298.01587603 74.11572266 297.96704102 C72.64416244 297.96974071 71.17260397 297.97362709 69.7010498 297.9786377 C66.6279998 297.98451042 63.55541721 297.97604268 60.48242188 297.95727539 C56.56179338 297.93448636 52.64226045 297.94762157 48.72167206 297.97156525 C45.68625778 297.98608418 42.65109926 297.98138961 39.61567688 297.97105408 C38.17092252 297.96840356 36.72614422 297.97159702 35.28141785 297.98097229 C19.74668733 298.05968162 19.74668733 298.05968162 14.27197266 293.43579102 C10.12858328 287.70783537 9.70047094 282.07580905 9.7731781 275.20625305 C9.76779355 274.20247515 9.76240899 273.19869726 9.75686127 272.16450185 C9.74363065 268.8149828 9.7587143 265.46620186 9.77368164 262.11669922 C9.76985722 259.70986597 9.76423713 257.303035 9.75695801 254.89620972 C9.74501657 249.72068202 9.74501071 244.54530035 9.75555229 239.36977577 C9.77052083 231.88149249 9.7605562 224.3933981 9.74403311 216.90512552 C9.7176016 204.74729211 9.70671217 192.5895012 9.70776367 180.43164062 C9.70782199 179.70477557 9.70788032 178.97791052 9.70794041 178.22901925 C9.70820627 175.28364617 9.70852356 172.3382731 9.70890367 169.39290004 C9.70987065 161.27820883 9.70854083 153.1635189 9.70581055 145.04882812 C9.70557065 144.32194301 9.70533076 143.5950579 9.7050836 142.84614597 C9.70067798 130.72872467 9.68445076 118.61134285 9.66058975 106.49394482 C9.64651849 99.02330243 9.64363957 91.55280997 9.65521265 84.0821624 C9.66339635 78.36251836 9.65668922 72.64296946 9.64452362 66.92333603 C9.64211164 64.57593294 9.6448733 62.22851811 9.65313148 59.88112831 C9.66371507 56.68202293 9.65602973 53.48346542 9.64378357 50.28437805 C9.65135962 49.35111688 9.65893568 48.41785572 9.66674131 47.45631391 C9.62759418 42.64841374 9.47332797 39.29729951 6.27197266 35.43579102 C2.26086174 32.98173581 -1.76258786 31.79403334 -6.29052734 30.62329102 C-12.01584916 28.93246051 -14.63366445 27.51938719 -17.72802734 22.43579102 C-19.70252403 18.48679764 -19.16573232 13.73988998 -18.72802734 9.43579102 C-14.56187163 0.79487546 -8.76194616 -0.01301258 0 0 Z " fill="#6A6869" transform="translate(752.72802734375,-0.435791015625)"/>
<path d="M0 0 C1.97677483 -0.01073296 1.97677483 -0.01073296 3.9934845 -0.02168274 C5.45233131 -0.0245228 6.91117837 -0.02723455 8.37002563 -0.02983093 C9.90766045 -0.03609794 11.44529376 -0.04274495 12.98292542 -0.04974365 C18.02942862 -0.07075291 23.07593204 -0.08114102 28.12246704 -0.09111023 C29.86080567 -0.09515853 31.59914414 -0.09927547 33.33748245 -0.10346031 C41.50242711 -0.12250269 49.66736276 -0.13673744 57.83232534 -0.14507228 C67.25543553 -0.15485072 76.67831121 -0.18118996 86.10133874 -0.22157317 C93.38722985 -0.25172589 100.67305366 -0.26654023 107.95900595 -0.26985329 C112.30982668 -0.27220415 116.66039658 -0.28116951 121.01115036 -0.30631447 C125.10373275 -0.32958649 129.19589896 -0.3338321 133.28853035 -0.32355309 C134.78893098 -0.32305745 136.28935206 -0.32938619 137.78969002 -0.34310913 C139.84165483 -0.36082494 141.89212532 -0.35372586 143.9440918 -0.34057617 C145.09113775 -0.34296453 146.23818371 -0.34535288 147.41998863 -0.34781361 C152.21649784 0.39901488 155.38191154 2.68128947 158.45274353 6.37976074 C159.98451271 10.07782016 159.99483724 13.49122433 159.93960571 17.42573547 C159.93996732 18.25896174 159.94032892 19.09218801 159.94070148 19.95066357 C159.93846917 22.63750749 159.91565528 25.3237206 159.89199829 28.01045227 C159.88758532 29.6733317 159.88452609 31.3362153 159.88284302 32.99909973 C159.86713895 39.1526872 159.82525514 45.30618536 159.78652954 51.45967102 C159.72465454 65.21654602 159.66277954 78.97342102 159.59902954 93.14717102 C131.54902954 93.14717102 103.49902954 93.14717102 74.59902954 93.14717102 C74.34902954 66.52217102 74.34902954 66.52217102 74.30117798 58.14472961 C74.27180405 55.94500133 74.24097752 53.74529176 74.20840454 51.54560852 C74.20727661 50.41034729 74.20614868 49.27508606 74.20498657 48.10542297 C74.0918269 41.84990101 73.86516282 37.87417052 69.59902954 33.14717102 C66.01774749 30.65860298 63.14026281 30.95420005 58.96621704 31.54951477 C47.59232866 34.42114005 40.3859206 45.52476251 33.62246704 54.26826477 C30.51222338 58.28098896 27.31232784 62.21679684 24.09902954 66.14717102 C20.04879802 71.10915069 16.04097021 76.09872069 12.09902954 81.14717102 C7.61702844 86.8872777 3.03946397 92.54410348 -1.56503296 98.18623352 C-5.50855908 103.02686511 -9.38205497 107.91714738 -13.2215271 112.8405304 C-17.39395769 118.17564485 -21.67422125 123.42103039 -25.98690796 128.64326477 C-31.81374344 135.14742444 -31.81374344 135.14742444 -34.65097046 143.02217102 C-34.56847046 143.72342102 -34.48597046 144.42467102 -34.40097046 145.14717102 C-30.73352803 147.48788237 -27.18341073 147.45294756 -22.9703064 147.46601868 C-22.22845093 147.4760643 -21.48659546 147.48610992 -20.72225952 147.49645996 C-18.27662919 147.52728551 -15.8311083 147.54432517 -13.38534546 147.56123352 C-11.68711404 147.57994569 -9.98889192 147.59951914 -8.29067993 147.61991882 C-3.82570881 147.67124089 0.63929246 147.7108662 5.10440063 147.74806213 C9.66258196 147.78810131 14.22063789 147.83919405 18.77871704 147.88935852 C27.71874187 147.98611878 36.65881845 148.06950144 45.59902954 148.14717102 C45.59902954 158.04717102 45.59902954 167.94717102 45.59902954 178.14717102 C42.68268677 178.16699036 39.76634399 178.18680969 36.7616272 178.20722961 C27.10244576 178.27427753 17.44337004 178.35191478 7.78431129 178.4346981 C1.93074517 178.48454362 -3.92280393 178.53087446 -9.77645874 178.56904602 C-15.4305172 178.60604745 -21.08442903 178.65244718 -26.73836136 178.70523453 C-28.8903711 178.72369974 -31.04241218 178.73883642 -33.19446945 178.75051498 C-36.21967178 178.76751276 -39.24454402 178.79657942 -42.2696228 178.82832336 C-43.59025223 178.83156364 -43.59025223 178.83156364 -44.93756104 178.83486938 C-54.578412 178.96324961 -64.97348059 180.05679232 -72.28768921 186.91670227 C-77.32918082 192.42859675 -81.82741026 198.44556644 -86.41268921 204.33857727 C-89.52068697 208.31982847 -92.70584393 212.23572459 -95.90097046 216.14717102 C-99.95097835 221.1093375 -103.95902571 226.09871546 -107.90097046 231.14717102 C-112.38360241 236.88808563 -116.96141069 242.5460488 -121.56723022 248.18843079 C-125.03990553 252.45028042 -128.45922785 256.7484858 -131.83847046 261.08467102 C-137.72788945 268.63675284 -143.83025756 276.01123291 -149.95028687 283.37690735 C-151.18760111 284.88679722 -152.38642901 286.42809021 -153.57675171 287.97529602 C-155.32965849 290.06226855 -156.84910171 291.40313694 -159.15097046 292.83467102 C-159.76456421 293.23041321 -160.37815796 293.6261554 -161.01034546 294.03388977 C-169.30029284 297.89440448 -177.98111187 297.44110397 -186.91659546 297.41279602 C-188.42015648 297.41414527 -189.92371707 297.41608797 -191.42727661 297.41859436 C-194.56405835 297.42152978 -197.70072555 297.4172968 -200.8374939 297.40791321 C-204.85463624 297.39647999 -208.87151242 297.40311243 -212.88864517 297.41505814 C-215.98731492 297.42228601 -219.08592155 297.41998524 -222.1845932 297.41480255 C-223.66614565 297.41347066 -225.14770387 297.41509762 -226.62924957 297.41976166 C-228.69686596 297.42484658 -230.76405029 297.41709126 -232.83163452 297.40596008 C-234.59413544 297.4035733 -234.59413544 297.4035733 -236.39224243 297.40113831 C-239.33153972 297.15303168 -240.99933823 296.82851576 -243.40097046 295.14717102 C-244.66426156 292.17843693 -244.96369248 291.21707038 -244.40097046 288.14717102 C-242.23489168 284.10883488 -239.31247884 280.66407235 -236.40097046 277.14717102 C-235.31228998 275.81525322 -234.22375702 274.48321483 -233.13534546 273.15107727 C-230.7395093 270.22956253 -228.3308531 267.31909685 -225.91659546 264.41279602 C-222.82843309 260.6836313 -219.81375184 256.90422216 -216.83847046 253.08467102 C-212.91937801 248.0551329 -208.93300821 243.08663881 -204.90097046 238.14717102 C-200.85114979 233.18484858 -196.84291852 228.19563082 -192.90097046 223.14717102 C-188.41896935 217.40706434 -183.84140489 211.75023856 -179.23690796 206.10810852 C-175.74566963 201.82265484 -172.30278158 197.50387649 -168.90097046 193.14717102 C-164.95901881 188.09870662 -160.95059625 183.1096564 -156.90097046 178.14717102 C-150.97631074 170.8838415 -145.1682723 163.53573487 -139.40097046 156.14717102 C-133.09353801 148.06663897 -126.71854076 140.05070962 -120.23739624 132.1085968 C-116.7458973 127.82305843 -113.30292266 123.50405718 -109.90097046 119.14717102 C-105.41896935 113.40706434 -100.84140489 107.75023856 -96.23690796 102.10810852 C-92.74566963 97.82265484 -89.30278158 93.50387649 -85.90097046 89.14717102 C-81.41896935 83.40706434 -76.84140489 77.75023856 -72.23690796 72.10810852 C-68.74566963 67.82265484 -65.30278158 63.50387649 -61.90097046 59.14717102 C-57.95902 54.09870815 -53.95066123 49.10960208 -49.90097046 44.14717102 C-45.833446 39.1618094 -41.80532353 34.15051274 -37.83847046 29.08467102 C-37.39575806 28.5232843 -36.95304565 27.96189758 -36.49691772 27.38349915 C-34.09416833 24.33266552 -31.72972709 21.25882994 -29.40097046 18.15107727 C-21.3385321 7.53015504 -14.03138814 0.0523103 0 0 Z " fill="#6A6869" transform="translate(244.40097045898438,-0.1471710205078125)"/>
<path d="M0 0 C1.26238998 -0.00960754 2.52477997 -0.01921509 3.82542419 -0.02911377 C5.20791441 -0.03396536 6.59040674 -0.0382433 7.97290039 -0.04199219 C8.67228792 -0.04481956 9.37167545 -0.04764694 10.09225655 -0.05056 C13.80190534 -0.06555569 17.5115153 -0.07477946 21.22119141 -0.07910156 C25.02364483 -0.08455065 28.82573368 -0.10850096 32.62807369 -0.13707352 C35.57523057 -0.15586863 38.52230315 -0.16091462 41.46951485 -0.16243744 C42.8691155 -0.16543259 44.26871581 -0.17335264 45.66825676 -0.18662262 C57.12988258 -0.28743549 68.55660036 0.06174573 77.62133789 7.84082031 C81.96205134 12.29398748 85.64012509 17.25046721 89.38110352 22.20361328 C91.97406131 25.58305665 94.68290994 28.86719278 97.38305664 32.16113281 C101.89363164 37.68546153 106.33580744 43.25632441 110.72338867 48.87866211 C114.17680375 53.29218881 117.7080181 57.63763127 121.25805664 61.97363281 C125.72480251 67.43401658 130.06351362 72.97343927 134.32055664 78.59863281 C138.8483753 84.57414014 143.48913712 90.43850129 148.25805664 96.22363281 C148.81678467 96.90159912 149.3755127 97.57956543 149.95117188 98.27807617 C159.82770389 111.73635379 159.82770389 111.73635379 174.07055664 118.47363281 C180.85297489 117.91769689 185.13564206 115.28342696 189.69555664 110.28613281 C193.37011199 105.90520663 196.88465745 101.3923396 200.39404297 96.87841797 C204.13937188 92.06782189 207.99250465 87.35476584 211.88305664 82.66113281 C216.11966333 77.5465263 220.30392829 72.40226805 224.38305664 67.16113281 C229.04284404 61.17392823 233.85238179 55.32019813 238.69165039 49.47753906 C242.32006623 45.08691771 245.88475851 40.65597492 249.38305664 36.16113281 C255.24742445 28.62626203 261.33117188 21.27522643 267.43212891 13.93139648 C268.67011097 12.42094588 269.87055717 10.87985972 271.06274414 9.33300781 C272.79714688 7.26363458 274.29927186 5.90687541 276.57055664 4.47363281 C277.47354492 3.88001953 277.47354492 3.88001953 278.39477539 3.27441406 C286.80779457 -0.48965261 295.74063616 -0.14995264 304.76977539 -0.13964844 C306.19985578 -0.14354349 307.62993503 -0.14787981 309.06001282 -0.15263367 C312.04118625 -0.16005318 315.02224112 -0.15983413 318.00341797 -0.15454102 C321.81304464 -0.1487265 325.62218826 -0.16574527 329.43173504 -0.18888569 C332.37865506 -0.20364615 335.32545899 -0.20449205 338.27240944 -0.20137596 C339.67695898 -0.20188717 341.08151536 -0.20708719 342.48602867 -0.21718788 C344.44995754 -0.22959013 346.41398521 -0.22079994 348.37792969 -0.21118164 C349.49217819 -0.21181107 350.6064267 -0.21244049 351.75444031 -0.21308899 C355.32683814 0.21421465 357.77508335 1.39141501 360.88305664 3.16113281 C361.37506239 9.04317174 360.43171032 11.57842144 356.69555664 16.09863281 C356.02931274 16.92053101 356.02931274 16.92053101 355.34960938 17.7590332 C354.38441513 18.94598145 353.41152316 20.12670263 352.43188477 21.30175781 C350.84178346 23.21068145 349.2741009 25.13615657 347.71118164 27.06738281 C345.5156747 29.77963511 343.31310172 32.4858879 341.10571289 35.18847656 C338.15463628 38.81268262 335.25871087 42.47694757 332.38305664 46.16113281 C327.90116804 51.90132536 323.32348886 57.55806798 318.71899414 63.20019531 C315.22775581 67.485649 311.78486776 71.80442734 308.38305664 76.16113281 C304.44110499 81.20959721 300.43268244 86.19864743 296.38305664 91.16113281 C290.45839693 98.42446233 284.65035848 105.77256896 278.88305664 113.16113281 C272.5756242 121.24166486 266.20062694 129.25759422 259.71948242 137.19970703 C256.22798348 141.48524541 252.78500885 145.80424666 249.38305664 150.16113281 C244.90105554 155.90123949 240.32349107 161.55806527 235.71899414 167.20019531 C232.22775581 171.485649 228.78486776 175.80442734 225.38305664 180.16113281 C220.90394396 185.89754028 216.32960986 191.55095322 211.7277832 197.18920898 C208.149199 201.58154322 204.62252106 206.01024969 201.13305664 210.47363281 C199.80414809 212.1678541 198.47450829 213.86149667 197.14428711 215.5546875 C195.92140847 217.11228359 194.70101979 218.67183356 193.48071289 220.23144531 C186.73544909 228.69473357 180.10306504 236.95846548 168.71709824 238.44366264 C166.37899413 238.55488709 164.05726377 238.57815058 161.71655273 238.56518555 C160.83744736 238.5720488 159.95834198 238.57891205 159.05259705 238.58598328 C156.17039472 238.60416365 153.28874103 238.60042769 150.40649414 238.59472656 C148.39205754 238.59929127 146.3776225 238.6045977 144.3631897 238.61061096 C140.15197398 238.61952385 135.94094812 238.61713815 131.72973633 238.60717773 C126.33828719 238.5956669 120.94749096 238.61594134 115.55612755 238.64509487 C111.40050106 238.66345072 107.2450314 238.66316602 103.08937454 238.65745735 C101.10148831 238.65730419 99.11359141 238.6633444 97.12574387 238.67574883 C94.34700333 238.69065225 91.56947449 238.67998807 88.79077148 238.6628418 C87.5656057 238.67734375 87.5656057 238.67734375 86.31568909 238.69213867 C81.05160338 238.6242354 78.06461527 237.63774089 73.88305664 234.16113281 C70.1177834 229.01525939 70.06051277 223.30279372 70.88305664 217.16113281 C73.08162268 212.60114399 75.32688776 210.28014153 79.88305664 208.16113281 C83.12815469 207.70587589 86.3595428 207.64947881 89.63305664 207.59863281 C101.00581691 207.36740952 110.53946192 206.34056796 118.99633789 198.10253906 C123.85784559 192.84382114 128.26195829 187.22207681 132.64038086 181.56152344 C136.33285613 176.80020776 140.18755379 172.20054387 144.17944336 167.68725586 C149.61047383 161.47517164 149.61047383 161.47517164 152.00805664 153.84863281 C150.20460569 151.14345639 147.97802234 150.97514999 144.88305664 150.16113281 C142.02028683 149.89102883 139.17500539 149.88398369 136.30102539 149.88769531 C134.62979479 149.86740212 132.95857088 149.84655125 131.28735352 149.82519531 C128.68076903 149.80265929 126.07445071 149.78614158 123.46777344 149.78027344 C111.69387857 149.73568802 101.92490709 149.59058277 92.80493164 141.22363281 C89.23607093 137.39363596 86.08926944 133.22537951 82.90649414 129.07519531 C79.80926767 125.03966154 76.60478715 121.09753291 73.38305664 117.16113281 C68.87460458 111.63844454 64.43461568 106.06926982 60.04711914 100.45019531 C56.54529417 95.97676573 52.974945 91.5624608 49.38305664 87.16113281 C44.87545691 81.63773596 40.43463022 76.06928845 36.04711914 70.45019531 C32.54529417 65.97676573 28.974945 61.5624608 25.38305664 57.16113281 C20.87908359 51.64217991 16.44067517 46.07907629 12.05810547 40.46337891 C7.9363288 35.19595663 3.7177774 30.00939916 -0.52709961 24.84082031 C-3.20539639 21.56734647 -5.8498299 18.26872085 -8.43725586 14.92285156 C-8.92597168 14.29338623 -9.4146875 13.6639209 -9.91821289 13.01538086 C-11.80614154 10.09505131 -12.18422848 7.59267414 -12.11694336 4.16113281 C-9.20663659 -0.20432734 -4.82755159 0.02964626 0 0 Z " fill="#6A6869" transform="translate(1664.116943359375,145.8388671875)"/>
<path d="M0 0 C0.88071462 -0.00382555 1.76142924 -0.00765109 2.66883218 -0.01159257 C5.59580176 -0.02184393 8.52257229 -0.01794552 11.44955444 -0.01396179 C13.55772583 -0.01831249 15.66589564 -0.02349683 17.77406311 -0.02944946 C23.4825137 -0.04280882 29.19089796 -0.04342178 34.89936113 -0.04088616 C39.66850324 -0.03981486 44.43763201 -0.04470364 49.20677125 -0.04949158 C60.45616621 -0.06057512 71.70552777 -0.06102997 82.95492554 -0.05497742 C94.55718175 -0.04893109 106.15931689 -0.06126806 117.76155245 -0.08254749 C127.73034616 -0.10015819 137.69910129 -0.10616587 147.66790998 -0.10290974 C153.61878529 -0.10109668 159.56957413 -0.10373594 165.52043533 -0.11762428 C171.11340695 -0.13019011 176.70618941 -0.12827022 182.2991581 -0.11521339 C184.3506241 -0.11284576 186.40210337 -0.11558896 188.45355415 -0.12383652 C191.25563285 -0.13428921 194.05707501 -0.1262152 196.85913086 -0.11352539 C197.66915578 -0.12089968 198.47918069 -0.12827396 199.31375182 -0.13587171 C205.15181726 -0.08031734 210.19108265 0.71898095 214.55841637 4.96961212 C217.80137552 10.31498643 218.51199881 14.56517601 218.41439819 20.76264954 C218.42006302 21.67755661 218.42572784 22.59246368 218.43156433 23.53509521 C218.44499001 26.537805 218.42417412 29.53929067 218.40414429 32.54194641 C218.40964888 34.64127932 218.41777746 36.74060683 218.42840576 38.83992004 C218.45124811 44.35410366 218.44708839 49.86789019 218.43460083 55.38209534 C218.41626753 64.2067914 218.42632461 73.03125513 218.46046066 81.855896 C218.46654482 84.92920228 218.45333017 88.00200492 218.43847656 91.07527161 C218.44142589 92.96976347 218.44508137 94.86425441 218.44955444 96.75874329 C218.44026413 97.60573288 218.43097382 98.45272247 218.42140198 99.32537842 C218.46214386 105.45145093 219.24019135 111.47003065 223.55648804 116.17085266 C227.60805594 118.13674387 231.98608923 118.56997736 236.39242554 119.31929016 C241.22137418 120.65236762 243.83892359 122.83182392 246.61508179 126.94819641 C249.0185347 133.65256507 248.31894283 139.14535655 245.36117554 145.53413391 C242.23007934 149.00266654 237.90095199 150.13741253 233.40858459 150.64164734 C231.63847771 150.64522751 231.63847771 150.64522751 229.83261108 150.64888 C229.17465546 150.65413696 228.51669983 150.65939392 227.83880615 150.66481018 C225.68455569 150.67790879 223.53105727 150.66930591 221.37680054 150.65913391 C219.86376302 150.6611583 218.35072646 150.66407277 216.83769226 150.66783142 C213.67298047 150.67224167 210.50852358 150.66586865 207.34384155 150.65180969 C203.31257284 150.63476244 199.28190543 150.64453854 195.25065899 150.66252708 C192.12684208 150.67343802 189.00316446 150.66988461 185.87934303 150.66214371 C184.39437601 150.66015953 182.90939584 150.66253743 181.4244442 150.66958237 C164.10240723 150.73371351 153.88588054 146.51610952 141.55258179 134.51069641 C134.5038508 127.46661806 128.76478497 119.81511728 128.61312866 109.47993469 C128.58805237 108.02032822 128.58805237 108.02032822 128.56246948 106.53123474 C128.54210632 104.94712296 128.54210632 104.94712296 128.52133179 103.33100891 C128.50292236 102.23086456 128.48451294 101.13072021 128.46554565 99.99723816 C128.40675531 96.46011262 128.35412536 92.92293445 128.30258179 89.38569641 C128.16716674 80.34326147 128.01279878 71.30173349 127.80258179 62.26069641 C127.7672937 60.69853394 127.7672937 60.69853394 127.73129272 59.10481262 C127.6576468 56.19498288 127.56252934 53.28678015 127.45883179 50.37788391 C127.43824707 49.52276215 127.41766235 48.66764038 127.39645386 47.78660583 C127.20054757 43.07712185 126.60533483 40.20875115 123.80258179 36.26069641 C123.80258179 35.60069641 123.80258179 34.94069641 123.80258179 34.26069641 C119.40967509 32.58554041 115.77411663 32.00836674 111.0821228 32.00190735 C109.76377945 31.99560303 108.4454361 31.98929871 107.08714294 31.98280334 C105.66025661 31.98638383 104.2333715 31.99048597 102.80648804 31.99507141 C101.32967566 31.99372251 99.85286372 31.99178009 98.37605286 31.98927307 C95.28698482 31.9863315 92.19803278 31.99058761 89.10897827 31.99995422 C85.16381606 32.01133821 81.21892634 32.00478993 77.27377415 31.9928093 C74.22559078 31.98555594 71.17747118 31.9878947 68.12928581 31.99306488 C66.67533269 31.9943923 65.22137364 31.99278571 63.76742744 31.98810577 C61.72894248 31.98298418 59.69088847 31.99082914 57.6524353 32.00190735 C56.49582901 32.00349854 55.33922272 32.00508972 54.14756775 32.00672913 C50.37902279 32.29285503 47.31245594 32.83745434 43.80258179 34.26069641 C41.37017778 38.01060683 41.53916055 41.8698629 41.51205444 46.25068665 C41.50533722 46.93428253 41.49862 47.61787842 41.49169922 48.32218933 C41.4727749 50.57129782 41.46879815 52.82010712 41.46664429 55.06929016 C41.46021335 56.63960898 41.45348477 58.2099266 41.44647217 59.78024292 C41.43451398 63.06778237 41.43078992 66.35521684 41.43197632 69.64277649 C41.43217963 73.84720185 41.40485928 78.05095218 41.3704319 82.25521755 C41.34815419 85.49724395 41.34413901 88.73910798 41.34519577 91.98120308 C41.34284182 93.53090304 41.33402985 95.08060761 41.31853104 96.63023186 C41.29884848 98.80106827 41.3047158 100.97044986 41.31674194 103.14131165 C41.31389191 104.37421432 41.31104187 105.607117 41.30810547 106.87738037 C41.89941475 110.92324888 43.26964178 113.08872293 45.80258179 116.26069641 C50.00818857 118.83694953 54.59589958 118.55624019 59.39242554 118.56929016 C61.08058009 118.59444607 62.76873105 118.61984415 64.45687866 118.64546204 C67.10099384 118.67419441 69.74504679 118.69823164 72.38925171 118.71699524 C74.95313002 118.73871695 77.51629579 118.77815302 80.07992554 118.81929016 C81.25675148 118.81946388 81.25675148 118.81946388 82.45735168 118.81964111 C87.28304029 118.90613539 90.62554104 119.59330653 94.80258179 122.26069641 C98.92826367 127.61293236 100.25211759 131.51765937 99.80258179 138.26069641 C98.13740889 143.43149646 96.37338022 146.28967743 91.80258179 149.26069641 C87.77208537 150.60419522 83.87616165 150.42492781 79.67221069 150.43769836 C78.7368045 150.44426956 77.80139832 150.45084076 76.83764648 150.45761108 C73.73481158 150.47735455 70.63202529 150.4890135 67.52914429 150.49897766 C66.46693035 150.50305319 65.40471642 150.50712872 64.31031418 150.51132774 C58.68029729 150.53220011 53.0503048 150.54649273 47.42025757 150.55586243 C41.62922771 150.56688583 35.83858644 150.60123535 30.04769325 150.64103413 C25.5761244 150.66730599 21.10464628 150.67556398 16.63300705 150.67914391 C14.50017062 150.68398824 12.36733764 150.69554008 10.23457718 150.7141819 C-5.563333 150.84360305 -19.03648667 150.61813783 -31.19741821 139.26069641 C-32.46585571 138.11020813 -32.46585571 138.11020813 -33.75991821 136.93647766 C-42.12466098 129.00739858 -48.5790533 120.53195336 -49.46484375 108.68360901 C-49.47246735 107.41772949 -49.48009094 106.15184998 -49.48794556 104.84761047 C-49.49466278 104.14249329 -49.50138 103.4373761 -49.50830078 102.71089172 C-49.52716634 100.39929489 -49.53119937 98.08799026 -49.53335571 95.77632141 C-49.5397925 94.15357855 -49.5465215 92.53083682 -49.55352783 90.90809631 C-49.56547269 87.51225599 -49.56921163 84.11651718 -49.56802368 80.72065735 C-49.56782086 76.39572035 -49.59509691 72.07144315 -49.6295681 67.74666214 C-49.65194463 64.39549342 -49.65585792 61.04448067 -49.65480423 57.69324493 C-49.65714504 56.10022971 -49.66588166 54.50720918 -49.68146896 52.91426849 C-49.77354462 42.53135838 -49.31866367 33.10170971 -43.11929321 24.31538391 C-42.40257446 23.59608704 -41.68585571 22.87679016 -40.94741821 22.13569641 C-40.1572229 21.32358704 -39.36702759 20.51147766 -38.55288696 19.67475891 C-37.38692993 18.47979797 -37.38692993 18.47979797 -36.19741821 17.26069641 C-34.88081542 15.68077306 -33.56815024 14.09755798 -32.25991821 12.51069641 C-23.41057729 2.59030431 -12.84677985 -0.06027103 0 0 Z " fill="#6A6869" transform="translate(1408.1974182128906,146.7393035888672)"/>
<path d="M0 0 C0.84528259 -0.0071553 1.69056519 -0.01431061 2.5614624 -0.02168274 C3.4856749 -0.02437164 4.40988739 -0.02706055 5.36210632 -0.02983093 C6.33801727 -0.03640213 7.31392822 -0.04297333 8.31941223 -0.04974365 C11.55328954 -0.06947605 14.78712043 -0.08113852 18.02104187 -0.09111023 C19.12509054 -0.09518576 20.22913921 -0.09926128 21.36664391 -0.10346031 C27.20904224 -0.12431977 33.05141708 -0.13862263 38.8938446 -0.147995 C44.92993401 -0.15906536 50.96565537 -0.19347317 57.00161457 -0.23316669 C61.6418934 -0.25930139 66.28208408 -0.267684 70.92243004 -0.27127647 C73.14757463 -0.27614974 75.37271509 -0.28778467 77.59778786 -0.30631447 C80.71223331 -0.33064065 83.82572011 -0.32975264 86.94023132 -0.32279968 C87.85837112 -0.33560974 88.77651093 -0.3484198 89.72247314 -0.36161804 C95.23980268 -0.31674345 98.55661602 0.33492076 102.84526062 4.14717102 C106.65083221 8.57223744 106.29596302 13.24077916 106.30595398 18.79927063 C106.32623405 20.24894478 106.32623405 20.24894478 106.34692383 21.72790527 C106.37452028 23.82253655 106.39548694 25.91726335 106.41058159 28.01202202 C106.43532204 31.3286957 106.47907051 34.64462974 106.52801514 37.96102905 C106.66324636 47.38860124 106.76026389 56.81651856 106.85380554 66.24458313 C106.91236194 72.01481255 106.98983904 77.7845539 107.0782032 83.55439949 C107.12203132 86.81932584 107.14324784 90.08391829 107.16409302 93.34906006 C107.19323934 95.354617 107.22353776 97.36015765 107.25517273 99.36567688 C107.25458359 100.72414734 107.25458359 100.72414734 107.25398254 102.11006165 C107.37391919 107.72600375 108.17052901 110.83422106 111.84526062 115.14717102 C118.30589626 118.93595057 127.97177433 118.01788179 135.06010437 116.42451477 C143.39014093 113.60212927 148.75721991 108.78923034 153.97026062 101.89717102 C154.40330505 101.32869446 154.83634949 100.7602179 155.28251648 100.17451477 C161.39899144 91.94021762 163.94879186 84.434803 164.00297546 74.15718079 C164.00805618 73.4735849 164.0131369 72.78998901 164.01837158 72.0856781 C164.02903227 70.60813214 164.03766913 69.13057046 164.04449081 67.65300179 C164.05633698 65.31112522 164.0758029 62.96942835 164.09761047 60.62762451 C164.15904363 53.97168477 164.21326973 47.31576676 164.24662781 40.65962219 C164.2676099 36.5817945 164.30293549 32.50430079 164.34738541 28.42666435 C164.36151104 26.87702814 164.37026007 25.32733291 164.37343979 23.77763557 C164.37836658 21.6069214 164.40156643 19.4370896 164.42875671 17.26655579 C164.44088699 15.41720177 164.44088699 15.41720177 164.45326233 13.53048706 C164.96902145 9.07899803 166.49400145 5.77994252 169.34526062 2.33467102 C172.75823245 -0.36726501 176.45068021 0.00326724 180.60820007 -0.02983093 C181.63315582 -0.03968773 181.63315582 -0.03968773 182.67881775 -0.04974365 C184.93872696 -0.06944392 187.19856982 -0.0811318 189.45854187 -0.09111023 C190.61814958 -0.09722352 190.61814958 -0.09722352 191.8011837 -0.10346031 C195.89294033 -0.12430699 199.98466357 -0.13861481 204.07646179 -0.147995 C208.29659833 -0.15905735 212.5162073 -0.19345874 216.73615742 -0.23316669 C219.98674481 -0.2593453 223.23720671 -0.26768789 226.48789024 -0.27127647 C228.04318493 -0.27613915 229.59847413 -0.28774417 231.15366554 -0.30631447 C233.33424518 -0.33073427 235.51346229 -0.32973669 237.69413757 -0.32279968 C238.93307266 -0.32866592 240.17200775 -0.33453217 241.44848633 -0.34057617 C246.31809595 0.35865734 249.44083606 2.54903272 252.65776062 6.20967102 C256.45985611 15.61485461 254.98126075 27.60140285 254.98336029 37.60924721 C254.9877155 42.55880363 255.01879073 47.5082347 255.04447937 52.4577179 C255.07488863 58.72981322 255.09756925 65.00170389 255.0957489 71.27388 C255.09496209 76.37018534 255.11829466 81.46588546 255.15763092 86.5620327 C255.16808026 88.49685127 255.16962282 90.43173974 255.16197968 92.36657143 C255.1523592 95.06860317 255.17352987 97.76879212 255.20170593 100.47065735 C255.19150925 101.26401993 255.18131256 102.05738251 255.17080688 102.87478638 C255.27797575 108.61333031 256.73454438 111.1305258 260.84526062 115.14717102 C262.70569339 116.24421388 262.70569339 116.24421388 264.62260437 116.58076477 C265.63665344 116.83636169 265.63665344 116.83636169 266.67118835 117.09712219 C267.3680072 117.25801331 268.06482605 117.41890442 268.78276062 117.58467102 C275.48959212 119.37996839 279.04675338 121.04653818 282.84526062 127.14717102 C284.82225548 131.10116074 284.27135123 135.83756883 283.84526062 140.14717102 C281.76823712 144.79970366 279.59735535 146.64455107 274.90771484 148.54135513 C271.06711101 149.66947657 267.23259447 149.56307479 263.25737 149.53535461 C262.32149551 149.54061157 261.38562103 149.54586853 260.42138672 149.55128479 C257.34375564 149.56443268 254.26664649 149.55576506 251.18901062 149.54560852 C249.04101971 149.54763075 246.89302946 149.55054343 244.74504089 149.55430603 C240.24957219 149.55872233 235.75428267 149.55232055 231.25883484 149.5382843 C225.50547268 149.52119299 219.75253042 149.53103787 213.99918365 149.54900169 C209.56558588 149.55985819 205.13208714 149.55638459 200.69848633 149.54861832 C198.57746328 149.54662148 196.45643114 149.5490574 194.3354187 149.55605698 C191.36775497 149.56370204 188.40076499 149.55202418 185.43315125 149.53535461 C184.56229385 149.54142731 183.69143646 149.5475 182.79418945 149.55375671 C176.32611144 149.48667579 171.38640165 148.48769566 166.47026062 143.95967102 C164.32621754 140.24882723 164.13400266 137.4061161 163.84526062 133.14717102 C160.23751986 134.9510414 157.76855519 137.18699512 155.03276062 140.08467102 C149.01882568 146.25746462 142.84168232 148.96240184 134.22947693 149.28088379 C132.81464394 149.28981793 131.39976998 149.29331874 129.98490906 149.29243469 C128.82043999 149.29747261 128.82043999 149.29747261 127.63244629 149.3026123 C125.07315965 149.31208875 122.5139387 149.31406392 119.95463562 149.31513977 C118.16730218 149.31835525 116.379969 149.32171954 114.59263611 149.32522583 C110.84692271 149.33120926 107.10123236 149.3330666 103.35551453 149.33247375 C98.57316421 149.33237232 93.79096297 149.34600921 89.00864792 149.36324596 C85.3161604 149.37440686 81.62370841 149.37639169 77.93120575 149.37586403 C76.16909014 149.37703857 74.40697346 149.38143061 72.64487457 149.3891964 C54.81900376 149.46038708 43.51392487 147.07839612 30.53276062 134.27217102 C29.94599548 133.69563782 29.35923035 133.11910461 28.75468445 132.52510071 C20.8723407 124.48184687 16.60194617 116.58372351 16.58988953 105.05366516 C16.58626907 104.38274338 16.58264862 103.71182159 16.57891846 103.02056885 C16.57207151 101.57634901 16.56951011 100.13210355 16.57086563 98.68786812 C16.57183871 96.39559858 16.55879777 94.10378797 16.54188538 91.81158447 C16.49584537 85.29888911 16.47101459 78.7862445 16.46440125 72.27339172 C16.45936737 68.27749815 16.43502869 64.28208888 16.39907455 60.28635979 C16.38932516 58.77185927 16.3869179 57.25729176 16.39224625 55.74276924 C16.45091132 44.35598299 16.45091132 44.35598299 11.84526062 34.14717102 C9.8957157 32.67010582 9.8957157 32.67010582 7.65776062 32.27217102 C6.87529968 32.06463196 6.09283875 31.8570929 5.28666687 31.64326477 C3.67492167 31.31575815 2.05733887 31.01563789 0.43510437 30.74482727 C-3.62044397 30.03392147 -6.31839678 29.52336985 -9.09223938 26.33467102 C-12.56806766 20.96293641 -13.99219259 16.61840038 -13.15473938 10.14717102 C-11.72236491 6.53213068 -10.23220309 3.58349646 -7.15473938 1.14717102 C-4.42464484 0.23713951 -2.80980799 0.01635363 0 0 Z " fill="#6A6869" transform="translate(1065.1547393798828,147.8528289794922)"/>
<path d="M0 0 C0.97474274 -0.00700928 1.94948547 -0.01401855 2.95376587 -0.02124023 C6.16681649 -0.03880436 9.37898186 -0.02720175 12.59204102 -0.01367188 C14.83114287 -0.01636745 17.07024358 -0.02025042 19.30934143 -0.02526855 C23.99914712 -0.03116167 28.68864777 -0.02260718 33.37841797 -0.00390625 C39.38189482 0.01886963 45.38465582 0.00576714 51.38810635 -0.01819611 C56.01131047 -0.03267016 60.63434572 -0.02804041 65.25755501 -0.01768494 C67.47068428 -0.01502143 69.68382902 -0.01827413 71.89694023 -0.02760315 C74.99420478 -0.03779339 78.0903207 -0.02223154 81.1875 0 C82.09733139 -0.00809692 83.00716278 -0.01619385 83.94456482 -0.02453613 C89.84200645 0.05364965 93.31161079 1.10694212 98.15844727 4.51757812 C100.37585403 7.54131462 100.65771889 10.84557001 101.15844727 14.51757812 C104.91335354 13.96098804 106.41040711 12.48698648 108.90844727 9.70507812 C114.08653994 4.30437586 120.13823464 0.68240397 127.74804688 0.3704071 C129.26891905 0.35529822 130.78985271 0.34578296 132.31079102 0.34057617 C133.14212051 0.33400497 133.97345001 0.32743378 134.82997131 0.32066345 C137.58529758 0.30093259 140.34056919 0.28926468 143.09594727 0.27929688 C144.51097534 0.27318358 144.51097534 0.27318358 145.95458984 0.26694679 C150.95336691 0.24608109 155.95211653 0.23178485 160.95092773 0.22241211 C166.09423674 0.21138213 171.237109 0.17702323 176.38026428 0.13724041 C180.35077674 0.11098118 184.32118693 0.10271175 188.29177856 0.09913063 C190.18623789 0.09428406 192.08069325 0.08272567 193.97506714 0.06409264 C215.45245293 -0.13392723 215.45245293 -0.13392723 225.10375977 6.56054688 C226.18270508 7.62208984 226.18270508 7.62208984 227.28344727 8.70507812 C228.09555664 9.4965625 228.90766602 10.28804687 229.74438477 11.10351562 C230.54102539 11.90015625 231.33766602 12.69679687 232.15844727 13.51757812 C232.95508789 14.23171875 233.75172852 14.94585937 234.57250977 15.68164062 C242.41304327 22.89283365 247.82132633 31.84261714 248.29647827 42.66001892 C248.30622177 44.42823753 248.30622177 44.42823753 248.31616211 46.23217773 C248.32124283 46.88651291 248.32632355 47.54084808 248.33155823 48.2150116 C248.34221537 49.62871424 248.35085359 51.04243325 248.35767746 52.45615959 C248.36952916 54.69722494 248.38899635 56.93810296 248.41079712 59.17909241 C248.47221198 65.54828635 248.52645158 71.91745743 248.55981445 78.28686523 C248.58080234 82.18963652 248.61613215 86.09205922 248.66057205 89.99463081 C248.67469279 91.47727918 248.6834456 92.95998914 248.68662643 94.44270134 C248.69155603 96.5200317 248.71476252 98.59644188 248.74194336 100.67358398 C248.75003021 101.85319199 248.75811707 103.03279999 248.76644897 104.24815369 C249.35439771 109.15188414 250.975981 112.42607081 254.59594727 115.76757812 C258.07017327 117.47421546 260.43559473 117.94819431 264.22094727 118.45507812 C268.17550094 119.02281108 269.91064856 119.34057905 273.22094727 121.70507812 C276.84891473 126.97148251 278.87105971 131.23270832 277.73657227 137.59570312 C276.30510988 142.35434835 273.39930893 145.99956651 269.15844727 148.51757812 C265.69144331 149.64936753 262.39056918 149.66329047 258.76025391 149.69458008 C257.46112564 149.70741531 256.16199738 149.72025055 254.82350159 149.73347473 C253.40520615 149.74164795 251.98690635 149.74909056 250.56860352 149.75585938 C249.48967237 149.76197267 249.48967237 149.76197267 248.38894463 149.76820946 C244.57440355 149.78905258 240.75989815 149.80335632 236.9453125 149.81274414 C233.03863153 149.82374575 229.13253006 149.85807686 225.22605228 149.89791584 C222.1947894 149.92429926 219.16365935 149.93245546 216.13229179 149.93602562 C214.6944231 149.94084356 213.25655835 149.95231743 211.81880379 149.97106361 C200.24772486 150.11243649 189.10019865 149.33668564 180.03344727 141.45507812 C178.39264411 139.82499918 176.76838766 138.17814558 175.15844727 136.51757812 C174.18853841 135.59662784 173.21443473 134.68007888 172.23657227 133.76757812 C163.72536473 125.73317719 158.64337814 118.16909463 157.97393799 106.22579956 C157.91130402 102.91340123 157.8808436 99.60515543 157.88405228 96.29237175 C157.88502726 94.06750225 157.87196382 91.8431031 157.85507202 89.61830139 C157.80907956 83.29854869 157.78419076 76.97885023 157.77758789 70.65893555 C157.77255881 66.77859621 157.74824882 62.89875676 157.7122612 59.01858711 C157.70250502 57.5479184 157.70010832 56.07718061 157.70543289 54.60648918 C157.88038877 43.86662884 157.88038877 43.86662884 153.15844727 34.51757812 C147.71403599 30.50830455 140.11249808 31.17424035 133.72875977 31.82226562 C122.35978831 34.03635416 115.69631541 40.02814246 109.28735352 49.19335938 C102.46119543 59.45388389 100.72226449 67.25160025 100.74775696 79.45300293 C100.75227569 81.80845766 100.73812262 84.16317708 100.71936035 86.51855469 C100.68276393 91.51821765 100.6688975 96.517801 100.65844727 101.51757812 C100.6463273 107.31621528 100.62463444 113.11448936 100.57844543 118.91296387 C100.56496486 121.22174716 100.56902874 123.53006061 100.57385254 125.83886719 C100.53076004 139.99378985 100.53076004 139.99378985 97.15844727 145.51757812 C90.98315182 151.23882306 81.83602911 150.09966426 74.00219727 150.04882812 C72.53063705 150.05152782 71.05907858 150.0554142 69.58752441 150.0604248 C66.51447441 150.06629753 63.44189182 150.05782979 60.36889648 150.0390625 C56.44826799 150.01627347 52.52873506 150.02940868 48.60814667 150.05335236 C45.57273239 150.06787129 42.53757386 150.06317672 39.50215149 150.05284119 C38.05739713 150.05019067 36.61261883 150.05338413 35.16789246 150.0627594 C19.62419914 150.14151414 19.62419914 150.14151414 14.15844727 145.51757812 C10.17457073 139.9411615 9.58810705 134.5705967 9.67602539 127.89208984 C9.67211288 126.96421661 9.66820038 126.03634338 9.66416931 125.08035278 C9.65822096 123.07901561 9.6613159 121.0776349 9.67259216 119.07632065 C9.6899203 115.90646643 9.68231109 112.73751877 9.66833496 109.56765747 C9.64305112 102.84256848 9.64849567 96.1176953 9.65844727 89.39257812 C9.66998035 81.58982143 9.6688274 73.78750702 9.63438416 65.98480606 C9.62729645 62.86590976 9.64395661 59.74771652 9.66149902 56.62887573 C9.65579126 54.71400576 9.64897403 52.79913867 9.64086914 50.88427734 C9.65218369 50.02074646 9.66349823 49.15721558 9.67515564 48.26751709 C9.62057287 42.86811486 8.73461363 39.81160897 5.15844727 35.51757812 C1.22885028 32.30245331 -3.43135485 31.51566736 -8.24780273 30.25976562 C-12.34984305 29.08598903 -14.88340362 27.68104491 -17.59155273 24.39257812 C-19.60993524 19.75029836 -20.61640092 15.26828918 -19.21655273 10.29882812 C-15.19981424 1.32811214 -9.15031653 -0.08125126 0 0 Z " fill="#6A6869" transform="translate(463.841552734375,147.482421875)"/>
<path d="M0 0 C9.24 0 18.48 0 28 0 C29.32 3.3 30.64 6.6 32 10 C34.20913086 10.01401855 34.20913086 10.01401855 36.46289062 10.02832031 C41.94984699 10.06832394 47.4362488 10.13411257 52.92285156 10.20751953 C55.29322156 10.23566889 57.66368438 10.25691329 60.03417969 10.27099609 C63.45035106 10.29250851 66.86541355 10.33920394 70.28125 10.390625 C71.85984802 10.39246796 71.85984802 10.39246796 73.47033691 10.39434814 C81.06725743 10.54408411 86.83007362 11.83007362 92.3125 17.3125 C96.55809773 24.0740075 97.42079738 29.07119086 97.1875 36.9375 C97.17396484 37.81212891 97.16042969 38.68675781 97.14648438 39.58789062 C97.11144109 41.72553086 97.05764541 43.86284984 97 46 C93.7 46 90.4 46 87 46 C87 47.65 87 49.3 87 51 C90.3 51 93.6 51 97 51 C97 57.27 97 63.54 97 70 C93.7 70 90.4 70 87 70 C87.11601563 71.59070313 87.23203125 73.18140625 87.3515625 74.8203125 C87.5756868 79.06172068 87.68321511 83.27277559 87.58203125 87.51953125 C87.56116455 88.47706299 87.54029785 89.43459473 87.51879883 90.42114258 C86.87692391 93.61178951 85.79911178 94.76593123 83.3125 96.8125 C81.22401972 97.58544988 79.1153703 98.30400438 77 99 C74.2376596 100.26915466 71.51400913 101.60699464 68.78588867 102.94799805 C64.55125757 105.02393689 60.27609642 107.01125518 56 109 C69.63362117 111.85392788 83.14400785 114.52023385 97 116 C97 122.6 97 129.2 97 136 C88.73303886 136 81.24996277 135.47486962 73.125 134.375 C71.82449707 134.2004126 70.52399414 134.0258252 69.18408203 133.84594727 C54.68471154 131.83608456 39.93356647 129.33205203 25.91894531 125.06103516 C18.383614 122.82515766 13.44517315 123.17819376 6 125.5 C3.90856049 126.08642846 1.81468041 126.66420548 -0.28125 127.234375 C-1.37050781 127.53150391 -2.45976563 127.82863281 -3.58203125 128.13476562 C-22.27446039 132.86662054 -42.6658857 136.53705873 -62 136 C-62 129.4 -62 122.8 -62 116 C-60.12957031 115.74605469 -58.25914063 115.49210937 -56.33203125 115.23046875 C-53.82547838 114.88311873 -51.31897033 114.53544515 -48.8125 114.1875 C-47.58595703 114.02185547 -46.35941406 113.85621094 -45.09570312 113.68554688 C-36.94174964 112.54528425 -28.98856589 110.99231391 -21 109 C-21.72590332 108.65743164 -22.45180664 108.31486328 -23.19970703 107.96191406 C-26.51046247 106.39613766 -29.81773936 104.82314389 -33.125 103.25 C-34.26710938 102.71117188 -35.40921875 102.17234375 -36.5859375 101.6171875 C-38.78764952 100.56753409 -40.98038627 99.49879502 -43.16259766 98.40917969 C-44.7943414 97.59878347 -46.44372685 96.81876662 -48.13037109 96.12988281 C-49.78125 95.34375 -49.78125 95.34375 -52 93 C-52.7127624 89.05516131 -52.56367794 85.24126408 -52.375 81.25 C-52.34792969 80.17105469 -52.32085938 79.09210938 -52.29296875 77.98046875 C-52.22232245 75.31945821 -52.11470582 72.65947562 -52 70 C-55.3 70 -58.6 70 -62 70 C-62 63.73 -62 57.46 -62 51 C-58.7 51 -55.4 51 -52 51 C-52 49.35 -52 47.7 -52 46 C-55.3 46 -58.6 46 -62 46 C-62 34.45 -62 22.9 -62 11 C-40.55 11 -19.1 11 3 11 C2.01 8.69 1.02 6.38 0 4 C0 2.68 0 1.36 0 0 Z M-36 30 C-36 32.97 -36 35.94 -36 39 C-33.03 39 -30.06 39 -27 39 C-27 42.96 -27 46.92 -27 51 C2.37 51 31.74 51 62 51 C62 47.04 62 43.08 62 39 C64.97 39 67.94 39 71 39 C71.47521148 34.84468242 71.47521148 34.84468242 69.60369873 31.32206726 C65.53533978 29.25629671 61.58914634 29.60828451 57.09082031 29.65942383 C55.5830175 29.65876671 55.5830175 29.65876671 54.04475403 29.65809631 C50.72234675 29.66018627 47.40044413 29.68352758 44.078125 29.70703125 C41.77455928 29.71262646 39.47099 29.71689691 37.16741943 29.71989441 C31.1043309 29.73134905 25.04145795 29.76082182 18.97845459 29.79400635 C12.79165564 29.82469373 6.60482187 29.83839691 0.41796875 29.85351562 C-11.72144889 29.88569071 -23.86070652 29.93689475 -36 30 Z M-27 70 C-27 73.96 -27 77.92 -27 82 C-9.23466173 89.72314241 -9.23466173 89.72314241 8.8125 96.75 C9.47950928 97.00152832 10.14651855 97.25305664 10.83374023 97.51220703 C18.62465783 100.25573099 25.40280579 96.5554996 32.8125 93.875 C33.92294678 93.47482666 35.03339355 93.07465332 36.17749023 92.66235352 C44.95494236 89.46135964 53.52528079 85.927925 62 82 C62 78.04 62 74.08 62 70 C32.63 70 3.26 70 -27 70 Z " fill="#6A6869" transform="translate(1540,1)"/>
<path d="M0 0 C22.44 0 44.88 0 68 0 C68 10.23 68 20.46 68 31 C77.9 31 87.8 31 98 31 C98 53.44 98 75.88 98 99 C88.1 99 78.2 99 68 99 C68 108.9 68 118.8 68 129 C45.56 129 23.12 129 0 129 C0 119.1 0 109.2 0 99 C-10.23 99 -20.46 99 -31 99 C-31 76.56 -31 54.12 -31 31 C-20.77 31 -10.54 31 0 31 C0 20.77 0 10.54 0 0 Z " fill="#C52B2F" transform="translate(328,100)"/>
<path d="M0 0 C50.16 0 100.32 0 152 0 C152 43.45714286 152 43.45714286 146.8125 51.3125 C140.48706883 57.35680089 134.46539689 58.58982277 125.91210938 58.45410156 C124.44732147 58.45497772 124.44732147 58.45497772 122.95294189 58.45587158 C119.74950676 58.4531017 116.54702107 58.42206107 113.34375 58.390625 C111.11316435 58.38315873 108.88257211 58.37746762 106.65197754 58.37347412 C100.79929288 58.35824833 94.94700931 58.3189925 89.09448242 58.2746582 C83.1151268 58.23363973 77.13570596 58.21544905 71.15625 58.1953125 C59.4373244 58.15249557 47.71869564 58.08428104 36 58 C35.34 60.64 34.68 63.28 34 66 C73.93 66 113.86 66 155 66 C155 124.58333333 155 124.58333333 147.75 132.4375 C141.07943194 136.22759549 134.62156795 137.44710589 127.02734375 137.29296875 C126.21882462 137.28872391 125.41030548 137.28447906 124.57728577 137.28010559 C122.03033127 137.26350035 119.4842096 137.22588533 116.9375 137.1875 C115.19597508 137.17242958 113.45443759 137.15874534 111.71289062 137.14648438 C107.47494639 137.11365684 103.23761368 137.06200455 99 137 C99.71738377 132.17179888 101.067163 128.060111 103.0625 123.625 C103.34416016 122.98433594 103.62582031 122.34367187 103.91601562 121.68359375 C104.60459421 120.11970341 105.30144711 118.55946059 106 117 C107.27617188 116.95101562 108.55234375 116.90203125 109.8671875 116.8515625 C111.53648072 116.77653809 113.20575046 116.70099012 114.875 116.625 C115.71675781 116.5940625 116.55851562 116.563125 117.42578125 116.53125 C118.23144531 116.49257812 119.03710938 116.45390625 119.8671875 116.4140625 C120.61081543 116.3826416 121.35444336 116.3512207 122.12060547 116.31884766 C124.24010974 116.14580449 124.24010974 116.14580449 126 114 C126.33 104.76 126.66 95.52 127 86 C84.1 86 41.2 86 -3 86 C0.375 75.875 0.375 75.875 1.82421875 72.18359375 C2.13037109 71.40048828 2.43652344 70.61738281 2.75195312 69.81054688 C3.06068359 69.02744141 3.36941406 68.24433594 3.6875 67.4375 C4.00783203 66.61958984 4.32816406 65.80167969 4.65820312 64.95898438 C5.43678254 62.97186378 6.21809845 60.98581573 7 59 C4.69 58.67 2.38 58.34 0 58 C0 38.86 0 19.72 0 0 Z M26 16 C26 17.98 26 19.96 26 22 C59 22 92 22 126 22 C126 20.02 126 18.04 126 16 C93 16 60 16 26 16 Z M26 36 C26 37.98 26 39.96 26 42 C38.59535401 42.09257084 51.19062746 42.16369942 63.78625202 42.20724869 C69.63456019 42.22814735 75.48263608 42.25650687 81.33081055 42.30175781 C86.97180154 42.34513382 92.61256875 42.36911992 98.25371361 42.37950897 C100.40878003 42.38691515 102.56383384 42.40137719 104.71880531 42.42292023 C107.7311844 42.45184428 110.74263196 42.45596057 113.75512695 42.45410156 C114.65136276 42.46848267 115.54759857 42.48286377 116.47099304 42.49768066 C121.23318253 42.58651021 121.23318253 42.58651021 125.07780457 40.09661865 C126.13420758 38.07662305 126.13420758 38.07662305 126 36 C93 36 60 36 26 36 Z " fill="#6A6869" transform="translate(1871,1)"/>
<path d="M0 0 C28.05 0 56.1 0 85 0 C85.061875 7.940625 85.12375 15.88125 85.1875 24.0625 C85.22846802 27.80412476 85.22846802 27.80412476 85.27026367 31.62133789 C85.2790311 33.61343909 85.28667443 35.6055457 85.29296875 37.59765625 C85.3159906 39.13093567 85.3159906 39.13093567 85.33947754 40.69519043 C85.34160859 46.53782537 85.23970765 51.03447052 82 56 C75.82745793 61.38120029 67.6007477 60.56298373 59.90234375 60.49609375 C58.54049096 60.49624903 57.17863772 60.49774282 55.81678772 60.50050354 C52.97490693 60.50188149 50.13353454 60.48943072 47.29174805 60.46655273 C43.66484262 60.43814196 40.03877886 60.44092053 36.41181087 60.45364285 C33.60377418 60.46062527 30.79592915 60.4527822 27.98791695 60.44038582 C26.00554109 60.43373038 24.02313816 60.43799558 22.04075623 60.44248962 C15.65579234 60.37582935 10.55319202 60.31413562 5 57 C1.0770033 52.14787251 -0.12996384 48.34654954 -0.11352539 42.23144531 C-0.11340454 41.2777002 -0.11328369 40.32395508 -0.11315918 39.34130859 C-0.10804321 38.34695801 -0.10292725 37.35260742 -0.09765625 36.328125 C-0.09664917 35.40821777 -0.09564209 34.48831055 -0.09460449 33.54052734 C-0.08937985 30.11033885 -0.07541858 26.68016815 -0.0625 23.25 C-0.041875 15.5775 -0.02125 7.905 0 0 Z " fill="#6A6869" transform="translate(319,237)"/>
<path d="M0 0 C8.58 0 17.16 0 26 0 C26 6.27 26 12.54 26 19 C27.96839844 18.66226562 29.93679688 18.32453125 31.96484375 17.9765625 C45.61681657 15.6549813 59.21926424 13.43007635 73 12 C73 19.26 73 26.52 73 34 C66.62814339 34.99830847 60.25615833 35.99570475 53.88378906 36.99072266 C51.71475831 37.32969465 49.54581259 37.66921114 47.37695312 38.00927734 C44.26454353 38.49719165 41.15183624 38.98316498 38.0390625 39.46875 C37.065065 39.62186646 36.0910675 39.77498291 35.08755493 39.93273926 C33.73638077 40.14295715 33.73638077 40.14295715 32.35791016 40.35742188 C31.56293121 40.48177612 30.76795227 40.60613037 29.94888306 40.73425293 C28 41 28 41 26 41 C26.08746284 42.43861294 26.19565348 43.87597508 26.3125 45.3125 C26.37050781 46.11300781 26.42851563 46.91351563 26.48828125 47.73828125 C27.10584844 50.46783392 27.83167445 51.26926184 30 53 C32.02951211 53.46878637 32.02951211 53.46878637 34.2878418 53.43237305 C35.14850754 53.45216721 36.00917328 53.47196136 36.8959198 53.49235535 C37.82100845 53.49874527 38.74609711 53.50513519 39.69921875 53.51171875 C40.64940384 53.52966995 41.59958893 53.54762115 42.5785675 53.56611633 C45.61483313 53.62031893 48.65094067 53.65414704 51.6875 53.6875 C53.74546475 53.72066428 55.80340862 53.7551531 57.86132812 53.79101562 C62.90757609 53.87854635 67.95309765 53.93852996 73 54 C73 60.27 73 66.54 73 73 C65.46294824 73.13609196 57.92636073 73.24593808 50.38837528 73.31087303 C46.88727369 73.34205511 43.38706336 73.38427948 39.88647461 73.45263672 C35.85261984 73.5309053 31.81968642 73.55952553 27.78515625 73.5859375 C26.54105484 73.61690521 25.29695343 73.64787292 24.01515198 73.67977905 C16.14154822 73.68280156 10.82084304 72.52292204 5 67 C-0.35416646 60.21598808 -0.14376944 53.22680691 0 45 C-1.21816406 45.2165625 -2.43632813 45.433125 -3.69140625 45.65625 C-5.31505098 45.93780689 -6.93875193 46.21903969 -8.5625 46.5 C-9.36236328 46.64308594 -10.16222656 46.78617188 -10.98632812 46.93359375 C-12.1706543 47.13662109 -12.1706543 47.13662109 -13.37890625 47.34375 C-14.0963501 47.46943359 -14.81379395 47.59511719 -15.55297852 47.72460938 C-18.68356055 48.07692869 -21.84965513 48 -25 48 C-25 41.07 -25 34.14 -25 27 C-19.07617599 25.68359466 -13.42361456 24.55996873 -7.4375 23.875 C-4.983125 23.58625 -2.52875 23.2975 0 23 C0 15.41 0 7.82 0 0 Z " fill="#6A6869" transform="translate(1758,2)"/>
<path d="M0 0 C8.58 0 17.16 0 26 0 C26 5.61 26 11.22 26 17 C47.78 17 69.56 17 92 17 C92 23.27 92 29.54 92 36 C70.22 36 48.44 36 26 36 C26 43.26 26 50.52 26 58 C17.42 58 8.84 58 0 58 C0 50.74 0 43.48 0 36 C-21.78 36 -43.56 36 -66 36 C-66 29.73 -66 23.46 -66 17 C-44.22 17 -22.44 17 0 17 C0 11.39 0 5.78 0 0 Z " fill="#6A6869" transform="translate(1739,79)"/>
<path d="M0 0 C0.79994888 -0.00428513 1.59989777 -0.00857025 2.42408752 -0.01298523 C4.1109218 -0.01871154 5.79778075 -0.01924135 7.48461914 -0.01489258 C10.05463087 -0.01173323 12.6234898 -0.03520979 15.19335938 -0.06054688 C16.83723814 -0.06282023 18.48111998 -0.06352319 20.125 -0.0625 C20.88767685 -0.07170975 21.6503537 -0.08091949 22.43614197 -0.09040833 C28.09274219 -0.04175473 32.0846169 1.09801628 36.47680664 4.90063477 C38.31420398 8.72844856 38.07644709 12.51103035 38.0625 16.703125 C38.06774185 17.61784073 38.0729837 18.53255646 38.0783844 19.47499084 C38.08480091 21.40738918 38.0834724 23.3398266 38.07495117 25.2722168 C38.06644594 28.22450543 38.09519956 31.17485583 38.12695312 34.12695312 C38.12856541 36.00650984 38.12798708 37.88606997 38.125 39.765625 C38.14185097 41.08614113 38.14185097 41.08614113 38.15904236 42.43333435 C38.1136831 46.4349076 37.9468564 48.75111008 35.91040039 52.27172852 C31.18113332 56.47771446 26.6327 56.60910445 20.51171875 56.6015625 C19.348647 56.60799019 19.348647 56.60799019 18.16207886 56.61454773 C16.5265195 56.62027366 14.89093469 56.62080412 13.25537109 56.61645508 C10.76875774 56.61330009 8.28334106 56.63675737 5.796875 56.66210938 C4.2018244 56.66438324 2.60677064 56.66508546 1.01171875 56.6640625 C0.27607697 56.67327225 -0.45956482 56.68248199 -1.21749878 56.69197083 C-7.0692717 56.64020189 -11.66669264 55.56556598 -16.28149414 51.70092773 C-18.02566593 47.85890379 -17.81856365 44.06920938 -17.8046875 39.8984375 C-17.80992935 38.98372177 -17.8151712 38.06900604 -17.8205719 37.12657166 C-17.82698841 35.19417332 -17.8256599 33.2617359 -17.81713867 31.3293457 C-17.80863344 28.37705707 -17.83738706 25.42670667 -17.86914062 22.47460938 C-17.87075291 20.59505266 -17.87017458 18.71549253 -17.8671875 16.8359375 C-17.87842148 15.95559341 -17.88965546 15.07524933 -17.90122986 14.16822815 C-17.8558706 10.1666549 -17.6890439 7.85045242 -15.65258789 4.32983398 C-10.85478235 0.06289317 -6.20564126 -0.00739618 0 0 Z " fill="#6A6869" transform="translate(1331.37109375,81.69921875)"/>
<path d="M0 0 C0 6.93 0 13.86 0 21 C-9 24 -9 24 -17 25 C-17 40.84 -17 56.68 -17 73 C-25.25 73 -33.5 73 -42 73 C-42 59.47 -42 45.94 -42 32 C-50.91 34.475 -50.91 34.475 -60 37 C-60.99 37 -61.98 37 -63 37 C-63 30.07 -63 23.14 -63 16 C-52.87219714 12.62406571 -52.87219714 12.62406571 -48.34423828 11.46606445 C-47.33354279 11.20602127 -46.32284729 10.94597809 -45.28152466 10.67805481 C-44.22182465 10.40917953 -43.16212463 10.14030426 -42.0703125 9.86328125 C-40.95816376 9.57897751 -39.84601501 9.29467377 -38.70016479 9.00175476 C-36.36595684 8.40602653 -34.03132392 7.81196118 -31.69628906 7.21948242 C-28.11389801 6.30968048 -24.53345774 5.39247382 -20.953125 4.47460938 C-18.67980058 3.89538932 -16.40636688 3.31659801 -14.1328125 2.73828125 C-13.0609671 2.46333328 -11.9891217 2.18838531 -10.88479614 1.90510559 C-9.89301361 1.65451889 -8.90123108 1.40393219 -7.87939453 1.14575195 C-6.57109177 0.81290947 -6.57109177 0.81290947 -5.23635864 0.4733429 C-3 0 -3 0 0 0 Z " fill="#6A6869" transform="translate(1736,2)"/>
<path d="M0 0 C2.16412879 -0.00970026 4.32730513 -0.0407333 6.49121094 -0.07226562 C7.87401782 -0.0787969 9.25683147 -0.08404688 10.63964844 -0.08789062 C12.51982666 -0.10190918 12.51982666 -0.10190918 14.43798828 -0.11621094 C19.04239866 0.37141703 21.57716496 2.0136884 24.80371094 5.24023438 C25.04036068 7.98989692 25.15603169 10.63554638 25.17480469 13.38867188 C25.1883474 14.60207748 25.1883474 14.60207748 25.2021637 15.83999634 C25.21668348 17.55312388 25.22555722 19.26630709 25.22924805 20.97949219 C25.24113548 23.59861003 25.2902916 26.21536484 25.34082031 28.83398438 C25.35028551 30.49803537 25.35752008 32.16210084 25.36230469 33.82617188 C25.38183701 34.60858246 25.40136932 35.39099304 25.42149353 36.19711304 C25.3911309 39.86402268 25.1188376 41.8515604 22.78271484 44.73291016 C19.00552419 46.644103 15.72223429 46.81624576 11.58105469 46.77148438 C10.7985585 46.77531128 10.01606232 46.77913818 9.20985413 46.78308105 C7.56168322 46.78579414 5.91346882 46.77847514 4.26538086 46.76171875 C1.7452804 46.74026901 -0.77197903 46.76155293 -3.29199219 46.78710938 C-4.89681617 46.78446655 -6.50163839 46.77934251 -8.10644531 46.77148438 C-8.85757095 46.7795813 -9.60869659 46.78767822 -10.38258362 46.79602051 C-13.64798638 46.73756258 -15.86209604 46.44457161 -18.66870117 44.72851562 C-20.83467686 41.20036727 -20.76945662 37.91452167 -20.72753906 33.89648438 C-20.73136597 33.0903772 -20.73519287 32.28427002 -20.73913574 31.45373535 C-20.74185296 29.75251005 -20.73450496 28.05124285 -20.71777344 26.35009766 C-20.69635896 23.74872542 -20.71757925 21.15011465 -20.74316406 18.54882812 C-20.74052075 16.89387412 -20.73539569 15.23892184 -20.72753906 13.58398438 C-20.73563599 12.8078479 -20.74373291 12.03171143 -20.7520752 11.23205566 C-20.69088482 7.70119519 -20.49892186 5.64342452 -18.35058594 2.78125 C-13.00994837 -1.03902474 -6.28888788 0.01708163 0 0 Z " fill="#6A6869" transform="translate(1329.1962890625,20.759765625)"/>
<path d="M0 0 C1.28197266 -0.00386719 2.56394531 -0.00773437 3.88476562 -0.01171875 C4.88141235 -0.00229248 4.88141235 -0.00229248 5.89819336 0.00732422 C7.93085598 0.02341583 9.96153876 0.00744515 11.99414062 -0.01171875 C13.27482422 -0.00785156 14.55550781 -0.00398438 15.875 0 C17.04877197 0.00338379 18.22254395 0.00676758 19.43188477 0.01025391 C22.37109375 0.3984375 22.37109375 0.3984375 24.25219727 1.50146484 C25.948724 4.37774952 25.76034495 6.8308694 25.76953125 10.1484375 C25.77240143 10.80295898 25.77527161 11.45748047 25.77822876 12.13183594 C25.78026743 13.51368069 25.77475121 14.89555443 25.76220703 16.27734375 C25.74614811 18.391282 25.76205976 20.50330863 25.78125 22.6171875 C25.77926753 23.96094172 25.77542377 25.30469474 25.76953125 26.6484375 C25.76614746 27.87046875 25.76276367 29.0925 25.75927734 30.3515625 C25.37109375 33.3984375 25.37109375 33.3984375 23.97119141 35.2578125 C19.16953813 38.68065719 13.24265008 37.66517215 7.55859375 37.7109375 C5.77485352 37.75444336 5.77485352 37.75444336 3.95507812 37.79882812 C2.23321289 37.81139648 2.23321289 37.81139648 0.4765625 37.82421875 C-0.57378174 37.83880127 -1.62412598 37.85338379 -2.70629883 37.8684082 C-6.48483427 37.26079976 -8.07382767 36.24203932 -10.62890625 33.3984375 C-11.26000977 30.23803711 -11.26000977 30.23803711 -11.2578125 26.55078125 C-11.26022446 25.89767471 -11.26263641 25.24456818 -11.26512146 24.57167053 C-11.26414489 23.19574896 -11.25079587 21.81978719 -11.22583008 20.4440918 C-11.19144525 18.33832591 -11.20519012 16.23674243 -11.22460938 14.13085938 C-11.21771226 12.79164882 -11.20804107 11.45244907 -11.1953125 10.11328125 C-11.18443604 8.89761475 -11.17355957 7.68194824 -11.16235352 6.42944336 C-10.62890625 3.3984375 -10.62890625 3.3984375 -9.0078125 1.50366211 C-5.88044184 0.05070573 -3.44672879 0.00992681 0 0 Z " fill="#6A6869" transform="translate(1380.62890625,39.6015625)"/>
<path d="M0 0 C9.24 0 18.48 0 28 0 C27.25714607 3.71426966 26.70390375 5.98192263 25.14233398 9.23950195 C24.76201523 10.03995438 24.38169647 10.8404068 23.98985291 11.66511536 C23.57941238 12.5142601 23.16897186 13.36340485 22.74609375 14.23828125 C22.32578384 15.11904831 21.90547394 15.99981537 21.47242737 16.90727234 C20.1327095 19.71156632 18.78522551 22.51204702 17.4375 25.3125 C16.52617761 27.21655042 15.61536436 29.12084462 14.70507812 31.02539062 C12.47688481 35.68692541 10.23822436 40.3432204 8 45 C-1.24 45 -10.48 45 -20 45 C-19.1058414 40.52920699 -17.99683723 37.58857503 -16.015625 33.5546875 C-15.71815369 32.94416534 -15.42068237 32.33364319 -15.11419678 31.70462036 C-14.16487947 29.75870899 -13.20782086 27.81673774 -12.25 25.875 C-11.30796461 23.95398666 -10.36763087 22.03215777 -9.4286499 20.10964966 C-8.56775126 18.34880432 -7.7024727 16.59010233 -6.83691406 14.83154297 C-4.48351621 9.92268785 -2.25267497 4.95588494 0 0 Z " fill="#696768" transform="translate(1889,93)"/>
<path d="M0 0 C1.12591553 0.00523682 2.25183105 0.01047363 3.41186523 0.01586914 C4.62680664 0.0190918 5.84174805 0.02231445 7.09350586 0.02563477 C8.37290039 0.03401367 9.65229492 0.04239258 10.97045898 0.05102539 C12.2537207 0.05553711 13.53698242 0.06004883 14.85913086 0.06469727 C18.04211921 0.07652994 21.22501661 0.09301471 24.40795898 0.11352539 C24.90295898 1.10352539 24.90295898 1.10352539 25.40795898 2.11352539 C24.82035828 3.80770874 24.82035828 3.80770874 23.80908203 5.85717773 C23.4350676 6.62492523 23.06105316 7.39267273 22.67570496 8.1836853 C22.26121597 9.01389191 21.84672699 9.84409851 21.41967773 10.69946289 C21.00128128 11.55279205 20.58288483 12.40612122 20.15180969 13.28530884 C18.80710791 16.02343608 17.45142628 18.75596226 16.09545898 21.48852539 C15.1917408 23.32410692 14.2887368 25.16004025 13.38647461 26.99633789 C10.4116482 33.04442107 7.42222291 39.08499753 4.40795898 45.11352539 C-4.83204102 45.11352539 -14.07204102 45.11352539 -23.59204102 45.11352539 C-21.5377988 38.95079874 -19.45766276 33.37454979 -16.61547852 27.61352539 C-16.24476227 26.85177002 -15.87404602 26.09001465 -15.49209595 25.30517578 C-14.71650613 23.71413425 -13.93827091 22.12437971 -13.1574707 20.53588867 C-11.95774944 18.0946183 -10.76644486 15.64937671 -9.57641602 13.20336914 C-8.81908401 11.65235318 -8.06128852 10.10156343 -7.30297852 8.55102539 C-6.94569672 7.81883789 -6.58841492 7.08665039 -6.2203064 6.33227539 C-3.17163808 0.1389104 -3.17163808 0.1389104 0 0 Z " fill="#696768" transform="translate(1943.592041015625,92.886474609375)"/>
</svg>
